<svg width="256" height="256" viewBox="0 0 256 256" fill="none" xmlns="http://www.w3.org/2000/svg">
<path d="M12.8008 140.801C12.8008 102.183 12.8008 82.8746 24.7977 70.8777C36.7946 58.8808 56.1033 58.8808 94.7208 58.8808H161.281C199.898 58.8808 219.207 58.8808 231.204 70.8777C243.201 82.8746 243.201 102.183 243.201 140.801V161.281C243.201 199.898 243.201 219.207 231.204 231.204C219.207 243.201 199.898 243.201 161.281 243.201H94.7208C56.1033 243.201 36.7946 243.201 24.7977 231.204C12.8008 219.207 12.8008 199.898 12.8008 161.281V140.801Z" fill="#F5F5F5"/>
<path d="M76.8008 48.6408C76.8008 46.2272 76.8008 45.0204 77.5506 44.2706C78.3004 43.5208 79.5072 43.5208 81.9208 43.5208H174.081C176.494 43.5208 177.701 43.5208 178.451 44.2706C179.201 45.0204 179.201 46.2272 179.201 48.6408C179.201 51.0544 179.201 52.2612 178.451 53.011C177.701 53.7608 176.494 53.7608 174.081 53.7608H81.9208C79.5072 53.7608 78.3004 53.7608 77.5506 53.011C76.8008 52.2612 76.8008 51.0544 76.8008 48.6408Z" fill="#F5F5F5"/>
<path fill-rule="evenodd" clip-rule="evenodd" d="M118.04 14.1986C117.761 14.7462 117.761 15.463 117.761 16.8968V34.3048C117.761 35.7385 117.761 36.4554 118.04 37.003C118.285 37.4847 118.677 37.8763 119.159 38.1218C119.706 38.4008 120.423 38.4008 121.857 38.4008H134.145C135.579 38.4008 136.295 38.4008 136.843 38.1218C137.325 37.8763 137.716 37.4847 137.962 37.003C138.241 36.4554 138.241 35.7385 138.241 34.3048V16.8968C138.241 15.463 138.241 14.7462 137.962 14.1986C137.716 13.7169 137.325 13.3252 136.843 13.0798C136.295 12.8008 135.579 12.8008 134.145 12.8008H121.857C120.423 12.8008 119.706 12.8008 119.159 13.0798C118.677 13.3252 118.285 13.7169 118.04 14.1986ZM128.001 30.7208C130.828 30.7208 133.121 28.4285 133.121 25.6008C133.121 22.7731 130.828 20.4808 128.001 20.4808C125.173 20.4808 122.881 22.7731 122.881 25.6008C122.881 28.4285 125.173 30.7208 128.001 30.7208Z" fill="#F5F5F5"/>
</svg>
